<?xml version="1.0" encoding="utf-8"?>
<!-- Generator: Adobe Illustrator 24.0.1, SVG Export Plug-In . SVG Version: 6.00 Build 0)  -->
<svg version="1.1" id="Layer_1" xmlns="http://www.w3.org/2000/svg" xmlns:xlink="http://www.w3.org/1999/xlink" x="0px" y="0px"
	 viewBox="0 0 806.2 599" style="enable-background:new 0 0 806.2 599;" xml:space="preserve">
<style type="text/css">
	.st0{fill:#FFFFFF;}
	.st1{fill:#686868;}
	.st2{fill:#029692;}
	.st3{fill:#00CECE;}
	.st4{fill:#2C2C2C;}
	.st5{fill:#222222;}
	.st6{fill:#EAB200;}
	.st7{fill:#7CB2E8;}
	.st8{fill:#FF69F8;}
	.st9{fill:#40E2A0;}
	.st10{fill:#029692;stroke:#000000;stroke-width:2;stroke-miterlimit:10;}
	.st11{fill:#FCFCFC;}
	.st12{opacity:0.1;fill:#E6E6E6;enable-background:new    ;}
	.st13{fill:#00CECE;enable-background:new    ;}
	.st14{fill:#029692;enable-background:new    ;}
	.st15{opacity:0.25;enable-background:new    ;}
	.st16{fill:#0B0B0F;}
	.st17{opacity:8.000000e-02;}
</style>
<title>base</title>
<g id="Base">
	<path class="st0" d="M800.9,418.7c-2.9-15.5-17.7-102.5-32-144.6c-9.4-27.7-13.1-53-17-64.9c-12-35.7-33-65.7-33-65.7
		s-9.5-13.1-10.1-16.3s-4.7-8.6-4.7-8.6s-17.4-5.7-62.3-5.7c-44.9,0-53.7,5-53.7,5c-1.7,1.9-3.7,3.5-5.9,4.8
		c-3.5,1.8-11.7,1.7-11.7,1.7h-33.4c-0.3-0.1-0.7,0.1-0.9,0.3c-0.3,0.6-0.5,1.3-0.6,2H269.5c-0.1-0.7-0.3-1.4-0.6-2
		c-0.2-0.2-0.6-0.3-0.9-0.3h-33.4c0,0-8.2,0.2-11.7-1.7c-2.2-1.2-4.2-2.8-5.9-4.8c0,0-8.8-5-53.7-5s-62.3,5.7-62.3,5.7
		s-4.1,5.3-4.7,8.6c-0.6,3.3-10.1,16.3-10.1,16.3s-21,30-33,65.7c-4,11.9-7.7,37.2-17,64.9c-14.3,42.1-29.1,129.1-32,144.6
		c-4.3,23.2-4.7,90.1-4.7,90.1s4.5,53.4,36.2,74.9s56.7,14,56.7,14s33.1-8.2,57.8-41.9s56.6-129.2,56.6-129.2
		c1.6-2.1,3.5-3.8,5.7-5.3c1.9-1.3,4-2.2,6.3-2.6l183.7,0.1l183.7-0.1c2.3,0.4,4.4,1.3,6.3,2.6c2.2,1.5,4.1,3.2,5.7,5.3
		c0,0,31.9,95.4,56.6,129.2c24.7,33.8,57.8,41.9,57.8,41.9s25,7.5,56.7-14s36.2-74.9,36.2-74.9S805.3,441.8,800.9,418.7z"/>
	<g id="Shadow">
		<path class="st1" d="M36.2,276c9.4-27.7,13.1-53,17-64.9c12-35.7,33-65.7,33-65.7s9.5-13.1,10.1-16.3s4.7-8.6,4.7-8.6
			s17.4-5.7,62.3-5.7s53.7,5,53.7,5c1.7,1.9,3.7,3.5,5.9,4.8c3.5,1.8,11.7,1.7,11.7,1.7H268c0.3-0.1,0.7,0.1,0.9,0.3
			c0.3,0.6,0.5,1.3,0.6,2h266.2c0.1-0.7,0.3-1.4,0.6-2c0.2-0.2,0.6-0.3,0.9-0.3h33.4c0,0,8.2,0.2,11.7-1.7c2.2-1.2,4.2-2.8,5.9-4.8
			c0,0,8.8-5,53.7-5s62.3,5.7,62.3,5.7s4.1,5.3,4.7,8.6c0.6,3.3,10.1,16.3,10.1,16.3s21,30,33,65.7c4,11.9,7.7,37.2,17,64.9
			c14.3,42.1,29.1,129.1,32,144.6c3.9,20.9,4.6,77.3,4.7,88.3v-0.1c0,0-0.3-66.9-4.7-90.1c-2.9-15.5-17.7-102.5-32-144.6
			c-9.4-27.7-13.1-53-17-64.9c-12-35.7-33-65.7-33-65.7s-9.5-13.1-10.1-16.3s-4.7-8.6-4.7-8.6s-17.4-5.7-62.3-5.7
			c-44.9,0-53.7,5-53.7,5c-1.7,1.9-3.7,3.5-5.9,4.8c-3.5,1.8-11.7,1.7-11.7,1.7h-33.4c-0.3-0.1-0.7,0.1-0.9,0.3
			c-0.3,0.6-0.5,1.3-0.6,2H269.5c-0.1-0.7-0.3-1.4-0.6-2c-0.2-0.2-0.6-0.3-0.9-0.3h-33.4c0,0-8.2,0.2-11.7-1.7
			c-2.2-1.2-4.2-2.8-5.9-4.8c0,0-8.8-5-53.7-5s-62.3,5.7-62.3,5.7s-4.1,5.3-4.7,8.6c-0.6,3.3-10.1,16.3-10.1,16.3s-21,30-33,65.7
			c-4,11.9-7.7,37.2-17,64.9c-14.3,42.1-29.1,129.1-32,144.6c-4.3,23.2-4.7,90.1-4.7,90.1v0.1c0.1-10.9,0.7-67.4,4.7-88.3
			C7.2,405.2,21.9,318.1,36.2,276z"/>
	</g>
	<path class="st2" d="M350.8,360c0-42.2-34.3-76.5-76.5-76.5s-76.5,34.3-76.5,76.5c0,0.7,0,1.3,0.1,2c0,0.7-0.1,1.3-0.1,2
		c0,42.2,34.3,76.5,76.5,76.5s76.5-34.3,76.5-76.5c0-0.7,0-1.3-0.1-2C350.7,361.3,350.8,360.6,350.8,360z"/>
	<circle class="st0" cx="274.3" cy="356" r="73"/>
	<path class="st2" d="M607.4,360c0-42.2-34.3-76.5-76.5-76.5s-76.5,34.3-76.5,76.5c0,0.7,0,1.3,0.1,2c0,0.7-0.1,1.3-0.1,2
		c0,42.2,34.3,76.5,76.5,76.5s76.5-34.3,76.5-76.5c0-0.7,0-1.3-0.1-2C607.4,361.3,607.4,360.7,607.4,360z"/>
	<circle class="st0" cx="530.9" cy="356" r="73"/>
	<circle cx="274.3" cy="356" r="51.5"/>
	<circle cx="530.9" cy="356" r="51.5"/>
	<circle class="st2" cx="651.9" cy="244.8" r="94.3"/>
	<circle class="st2" cx="153.3" cy="244.8" r="94.3"/>
	<path class="st3" d="M230,254.1l9.5-8.9c0.5-0.4,0.5-1.2,0.1-1.6c0,0,0-0.1-0.1-0.1l-9.5-8.9c-0.4-0.4-1.2-0.4-1.6,0
		c-0.2,0.2-0.3,0.5-0.3,0.8v17.8c0,0.6,0.5,1.2,1.1,1.2C229.5,254.4,229.8,254.3,230,254.1z"/>
	<path class="st3" d="M144.6,169.8h17.8c0.6,0,1.1-0.5,1.1-1.1c0-0.3-0.1-0.6-0.3-0.8l-8.9-9.5c-0.4-0.5-1.2-0.5-1.6-0.1
		c0,0-0.1,0-0.1,0.1l-8.9,9.5c-0.4,0.5-0.3,1.2,0.2,1.6C144.1,169.7,144.3,169.8,144.6,169.8z"/>
	<path class="st3" d="M77.1,234.6l-9.5,8.9c-0.5,0.4-0.5,1.2-0.1,1.6c0,0,0,0.1,0.1,0.1l9.5,8.9c0.4,0.4,1.2,0.4,1.6,0
		c0.2-0.2,0.3-0.5,0.3-0.8v-17.8c0-0.6-0.5-1.2-1.1-1.2C77.6,234.3,77.3,234.4,77.1,234.6z"/>
	<path class="st3" d="M162.4,318.8h-17.8c-0.6,0-1.1,0.5-1.1,1.1c0,0.3,0.1,0.6,0.3,0.8l8.9,9.5c0.4,0.5,1.2,0.5,1.6,0.1
		c0,0,0.1,0,0.1-0.1l8.9-9.5c0.4-0.5,0.3-1.2-0.2-1.6C162.9,318.9,162.7,318.8,162.4,318.8z"/>
	<path class="st3" d="M547.2,134.6c0,2.1-1.6,3.8-3.7,3.8c-0.1,0-0.3,0-0.4,0c-2.1,0.2-3.9-1.3-4.1-3.4c0-0.1,0-0.3,0-0.4
		c0-2.1,1.7-3.8,3.8-3.8c0.1,0,0.2,0,0.3,0c2.1-0.2,3.9,1.3,4.1,3.4C547.2,134.3,547.2,134.5,547.2,134.6z M540.5,134.6
		c-0.1,1.4,0.9,2.6,2.3,2.7c0.1,0,0.2,0,0.3,0c1.4,0,2.6-1.1,2.6-2.5c0-0.1,0-0.2,0-0.2c0.1-1.4-0.9-2.6-2.3-2.7c-0.1,0-0.2,0-0.3,0
		c-1.4-0.1-2.5,1-2.6,2.4C540.5,134.4,540.5,134.5,540.5,134.6z"/>
	<path class="st3" d="M548.5,131h3.8c2.4,0,2.9,1.3,2.9,2.2s-0.5,2.2-2.9,2.2H550v2.8h-1.5V131z M550,134.4h2.2
		c0.7,0.1,1.4-0.4,1.5-1.1v-0.1c0-0.7-0.6-1.2-1.3-1.2c-0.1,0-0.2,0-0.2,0H550V134.4L550,134.4z"/>
	<path class="st3" d="M555.7,131h6.9v1.1h-2.7v6.1h-1.5v-6.1h-2.7V131z"/>
	<path class="st3" d="M563.7,131h1.5v7.2h-1.5V131z"/>
	<path class="st3" d="M574.7,134.6c0,2.1-1.6,3.8-3.7,3.8c-0.1,0-0.3,0-0.4,0c-2.1,0.2-3.9-1.3-4.1-3.4c0-0.1,0-0.3,0-0.4
		c0-2.1,1.7-3.8,3.8-3.8c0.1,0,0.2,0,0.3,0c2.1-0.2,3.9,1.3,4.1,3.4C574.7,134.3,574.7,134.5,574.7,134.6z M568,134.6
		c-0.1,1.4,0.9,2.6,2.3,2.7c0.1,0,0.2,0,0.3,0c1.4,0,2.6-1.1,2.6-2.5c0-0.1,0-0.2,0-0.2c0.1-1.4-0.9-2.6-2.3-2.7c-0.1,0-0.2,0-0.3,0
		c-1.4-0.1-2.5,1-2.6,2.4C568,134.4,568,134.5,568,134.6z"/>
	<path class="st3" d="M576.1,131h1.5l3.9,5.3l0,0V131h1.4v7.2h-1.6l-3.9-5.3l0,0v5.3H576L576.1,131L576.1,131L576.1,131z"/>
	<path class="st3" d="M585.8,135.8c0,1.1,1,1.5,2.2,1.5s1.8-0.6,1.8-1.1c0-0.4-0.3-0.8-0.7-0.9c-0.6-0.2-1.4-0.3-2.6-0.6
		c-1.5-0.3-1.9-1.1-1.9-1.8c0-1.5,1.6-2.1,3.1-2.1c1.8,0,3.3,0.8,3.3,2.3h-1.5c-0.1-0.8-0.9-1.4-1.7-1.3c0,0,0,0-0.1,0
		c-0.7,0-1.6,0.2-1.6,0.9c0.1,0.5,0.5,0.9,1,0.9c0.8,0.1,1.7,0.4,2.5,0.6c0.9,0.2,1.6,0.9,1.7,1.8c0,1.6-1.7,2.3-3.4,2.3
		c-2,0-3.5-0.8-3.6-2.6h1.5L585.8,135.8L585.8,135.8z"/>
	<path class="st3" d="M221.8,135.8c0,1.1,1,1.5,2.2,1.5s1.8-0.6,1.8-1.1c0-0.4-0.3-0.8-0.7-0.9c-0.6-0.2-1.4-0.3-2.6-0.6
		c-1.5-0.3-1.9-1.1-1.9-1.8c0-1.5,1.6-2.1,3.1-2.1c1.8,0,3.3,0.8,3.3,2.3h-1.5c-0.1-0.8-0.9-1.4-1.7-1.3c0,0,0,0-0.1,0
		c-0.7,0-1.6,0.2-1.6,0.9c0.1,0.5,0.5,0.9,1,0.9c0.8,0.1,1.7,0.4,2.5,0.6c0.9,0.2,1.6,0.9,1.7,1.8c0,1.6-1.7,2.3-3.4,2.3
		c-2,0-3.5-0.8-3.6-2.6h1.5L221.8,135.8L221.8,135.8z"/>
	<path class="st3" d="M228.5,131h1.5v2.9h3.9V131h1.5v7.2h-1.5v-3.3H230v3.2h-1.5V131z"/>
	<path class="st3" d="M239.5,131h1.6l3.3,7.2h-1.6l-0.8-1.9h-3.4l-0.8,1.9h-1.5L239.5,131z M239,135.3h2.6l-1.3-3.1l0,0L239,135.3z"
		/>
	<path class="st3" d="M245.2,131h4.1c1.9,0,2.8,0.7,2.8,1.9c0,0.9-0.6,1.6-1.4,1.8l0,0c0.8,0.1,1.3,0.7,1.3,1.5
		c-0.1,0.7,0.1,1.4,0.5,1.9h-1.6c-0.2-0.3-0.2-0.7-0.2-1.1c0-1.3-0.3-1.9-1.7-1.9h-2.2v3h-1.5L245.2,131L245.2,131L245.2,131z
		 M246.7,134.2h2.5c1,0,1.5-0.4,1.5-1.1c0-0.9-0.7-1.1-1.5-1.1h-2.4v2.2L246.7,134.2L246.7,134.2z"/>
	<path class="st3" d="M253.7,131h6.2v1.1h-4.7v1.9h4.3v1h-4.3v2.1h4.7v1.1h-6.2V131z"/>
	<path class="st2" d="M696.8,109.9c0-0.8-0.4-1.5-1.1-1.9c-4.5-2.9-23.4-13.6-51.5-13.6c-26.9,0-41.1,5.9-45.1,8
		c-0.7,0.4-1.2,1.2-1.2,2c0,0,9.8-2.9,47.5-2.9S696.8,109.9,696.8,109.9z"/>
	<path class="st3" d="M696.7,116.8L696.7,116.8v-6.9c0,0-13.7-8.4-51.4-8.4s-47.5,2.9-47.5,2.9v11l0,0c7.7-1.3,21.2-2.6,44.1-2.6
		C670.4,112.9,687.8,115.2,696.7,116.8z"/>
	<path class="st2" d="M108.4,109.9c0-0.8,0.4-1.5,1.1-1.9c4.5-2.9,23.4-13.6,51.5-13.6c26.9,0,41.1,5.9,45.1,8
		c0.7,0.4,1.2,1.2,1.2,2c0,0-9.8-2.9-47.5-2.9S108.4,109.9,108.4,109.9z"/>
	<path class="st3" d="M108.5,116.8L108.5,116.8v-6.9c0,0,13.7-8.4,51.4-8.4s47.5,2.9,47.5,2.9v11l0,0c-7.7-1.3-21.2-2.6-44.1-2.6
		C134.8,112.9,117.4,115.2,108.5,116.8z"/>
	<g id="Shapes">
		<path class="st4" d="M709.5,271c-14.5,0-26.3-11.8-26.3-26.3c0-14.5,11.8-26.3,26.3-26.3s26.3,11.8,26.3,26.3l0,0
			C735.8,259.2,724,271,709.5,271z"/>
		<path class="st5" d="M709.5,219.5c14,0,25.3,11.3,25.3,25.3c0,14-11.3,25.3-25.3,25.3s-25.3-11.3-25.3-25.3l0,0
			C684.2,230.8,695.5,219.5,709.5,219.5 M709.5,217.5c-15.1,0-27.3,12.2-27.3,27.3c0,15.1,12.2,27.3,27.3,27.3s27.3-12.2,27.3-27.3
			l0,0C736.8,229.7,724.6,217.5,709.5,217.5L709.5,217.5z"/>
		<path class="st6" d="M709.5,225.9c-10.4,0-18.9,8.5-18.9,18.9s8.5,18.9,18.9,18.9s18.9-8.5,18.9-18.9l0,0
			C728.4,234.4,719.9,225.9,709.5,225.9z M709.5,260.8c-8.8,0-16-7.2-16-16s7.2-16,16-16s16,7.2,16,16S718.3,260.8,709.5,260.8z"/>
		<path class="st4" d="M651.9,328.6c-14.5,0-26.3-11.8-26.3-26.3s11.8-26.3,26.3-26.3s26.3,11.8,26.3,26.3l0,0
			C678.2,316.8,666.4,328.6,651.9,328.6z"/>
		<path class="st5" d="M651.9,277.1c14,0,25.3,11.3,25.3,25.3s-11.3,25.3-25.3,25.3s-25.3-11.3-25.3-25.3l0,0
			C626.6,288.4,637.9,277.1,651.9,277.1 M651.9,275.1c-15.1,0-27.3,12.2-27.3,27.3c0,15.1,12.2,27.3,27.3,27.3s27.3-12.2,27.3-27.3
			l0,0C679.2,287.3,667,275.1,651.9,275.1L651.9,275.1z"/>
		<polygon class="st7" points="666.3,290 664.3,288 651.9,300.4 639.6,288 637.6,290 649.9,302.4 637.6,314.7 639.6,316.8 
			651.9,304.4 664.3,316.8 666.3,314.7 653.9,302.4 		"/>
		<path class="st4" d="M594.4,271c-14.5,0.1-26.3-11.7-26.4-26.2c-0.1-14.5,11.7-26.3,26.2-26.4c14.5-0.1,26.3,11.7,26.4,26.2
			c0,0.1,0,0.1,0,0.2C620.5,259.2,608.8,270.9,594.4,271z"/>
		<path class="st5" d="M594.3,219.5c14,0,25.3,11.3,25.3,25.3c0,14-11.3,25.3-25.3,25.3S569,258.8,569,244.8l0,0
			C569,230.8,580.3,219.5,594.3,219.5 M594.3,217.5c-15.1,0-27.3,12.2-27.3,27.3c0,15.1,12.2,27.3,27.3,27.3s27.3-12.2,27.3-27.3
			l0,0C621.6,229.7,609.4,217.5,594.3,217.5L594.3,217.5z"/>
		<path class="st8" d="M605.9,230.4h-25.8V259h28.6v-28.6H605.9z M605.9,256.3h-23v-23h23V256.3z"/>
		<path class="st4" d="M651.9,213.5c-14.5,0-26.3-11.8-26.3-26.3s11.8-26.3,26.3-26.3s26.3,11.8,26.3,26.3l0,0
			C678.2,201.7,666.4,213.5,651.9,213.5z"/>
		<path class="st5" d="M651.9,162c14,0,25.3,11.3,25.3,25.3s-11.3,25.3-25.3,25.3s-25.3-11.3-25.3-25.3l0,0
			C626.6,173.3,637.9,162,651.9,162 M651.9,160c-15.1,0-27.3,12.2-27.3,27.3s12.2,27.3,27.3,27.3s27.3-12.2,27.3-27.3l0,0
			C679.2,172.2,667,160,651.9,160L651.9,160z"/>
		<path class="st9" d="M667.9,195.2l-16-27.6l-16,27.6l-1.6,2.8h35.2L667.9,195.2z M651.9,195.2h-12.7l12.7-21.9l12.7,21.9H651.9z"
			/>
	</g>
	<g id="Sound">
		<circle cx="402.6" cy="316.4" r="4.1"/>
		<circle cx="402.6" cy="295.5" r="4.1"/>
		<circle cx="395.7" cy="305.7" r="4.1"/>
		<circle cx="381" cy="305.7" r="4.1"/>
		<circle cx="388.3" cy="316.4" r="4.1"/>
		<circle cx="374" cy="295.5" r="4.1"/>
		<circle cx="409.5" cy="305.7" r="4.1"/>
		<circle cx="424.2" cy="305.7" r="4.1"/>
		<circle cx="416.8" cy="316.4" r="4.1"/>
		<circle cx="416.8" cy="295.5" r="4.1"/>
		<circle cx="431.2" cy="295.5" r="4.1"/>
	</g>
	<g id="PS">
		<circle class="st10" cx="402.6" cy="362" r="20.2"/>
		<path class="st3" d="M403.7,368.6v-12.8c0-0.4,0.1-0.7,0.3-1c0.2-0.2,0.4-0.3,0.7-0.2c0.7,0.3,1.1,1,0.9,1.7v6.9
			c0.6,0.3,1.4,0.5,2.1,0.5c0.6,0,1.1-0.2,1.6-0.5c1-0.7,1.5-1.9,1.5-3.7c0.1-1.5-0.3-3.1-1.2-4.3c-1.1-1.2-2.5-2.1-4.1-2.6
			c-1.3-0.4-2.5-0.8-3.6-1.1c-1.1-0.3-2-0.5-2.9-0.7V363l0,0v2.7l0,0v1.7l0,0v2.5l0,0v1.5l4.7,1.5v-3.6l0,0V368.6z"/>
		<path class="st3" d="M398.6,367.6l-1.7,0.6l-0.9,0.4l-1.6,0.3l-1.5-0.2c-0.3-0.2-0.4-0.4-0.2-0.6s0.2-0.1,0.3-0.2
			c0.1-0.1,0.3-0.1,0.4-0.2l1.1-0.4l4.1-1.5v-2.7l-1.7,0.5l-5.5,2l-1,0.4c-1.5,0.6-2.2,1.2-2.2,1.8c0.1,0.8,1,1.5,2.7,1.9
			c0.7,0.2,1.4,0.3,2.1,0.4s1.5,0.1,2.2,0.1c1.1,0,2.2-0.1,3.3-0.3L398.6,367.6L398.6,367.6L398.6,367.6z"/>
		<path class="st3" d="M414.4,365.3c-0.8-0.3-1.6-0.5-2.5-0.6c-0.8-0.1-1.7-0.2-2.5-0.1c-0.9,0.1-1.9,0.2-2.8,0.3
			c-0.9,0.2-1.8,0.5-2.6,0.8v2.8l3.9-1.4l1.6-0.5l1.1-0.3h1.4c0.3,0,0.5,0.2,0.7,0.4c-0.1,0.3-0.4,0.6-0.8,0.6l-1.4,0.5l-6.5,2.4
			v2.7l3.5-1.3l6.4-2.3l0.7-0.4c1.5-0.5,2.2-1.2,2.2-1.9S416,365.8,414.4,365.3z"/>
	</g>
	<path class="st0" d="M104.8,544.5C64.3,541.7,29,524.2,17.5,514S0,482.5,0,482.5c-0.4,15-0.4,26.3-0.4,26.3s4.5,53.4,36.2,74.9
		s56.7,14,56.7,14s33.1-8.2,57.8-41.9c5.3-7.6,10-15.5,14.1-23.8C164.3,531.9,145.2,547.2,104.8,544.5z"/>
	<path class="st11" d="M700.4,544.5c40.5-2.8,75.8-20.3,87.3-30.5s17.5-31.5,17.5-31.5c0.4,15,0.4,26.3,0.4,26.3
		s-4.5,53.4-36.2,74.9s-56.7,14-56.7,14s-33.1-8.2-57.8-41.9c-5.3-7.6-10-15.5-14.1-23.8C640.9,531.9,660,547.2,700.4,544.5z"/>
	<g id="Shadow_Left">
		<path class="st12" d="M104.8,544.5C64.3,541.7,29,524.2,17.5,514S0,482.5,0,482.5c-0.4,15-0.4,26.3-0.4,26.3s4.5,53.4,36.2,74.9
			s56.7,14,56.7,14s33.1-8.2,57.8-41.9c5.3-7.6,10-15.5,14.1-23.8C164.3,531.9,145.2,547.2,104.8,544.5z"/>
		<path class="st13" d="M104.8,544.5C64.3,541.7,29,524.2,17.5,514S0,482.5,0,482.5c-0.4,15-0.4,26.3-0.4,26.3s4.5,53.4,36.2,74.9
			s56.7,14,56.7,14s33.1-8.2,57.8-41.9c5.3-7.6,10-15.5,14.1-23.8C164.3,531.9,145.2,547.2,104.8,544.5z"/>
		<path class="st14" d="M89.6,592.5c-12.5,1.8-31.3-2-45.1-7.7c-13.6-5.7-24-16.4-24-16.4c4.2,5.9,9.4,11,15.3,15.2
			c31.7,21.5,56.7,14,56.7,14s11.7-2.9,26.3-12.3C109.3,588.6,99.5,591,89.6,592.5z"/>
	</g>
	<g id="Shadow_Right">
		<path class="st12" d="M700.4,544.5c40.5-2.8,75.8-20.3,87.3-30.5s17.5-31.5,17.5-31.5c0.4,15,0.4,26.3,0.4,26.3
			s-4.5,53.4-36.2,74.9s-56.7,14-56.7,14s-33.1-8.2-57.8-41.9c-5.3-7.6-10-15.5-14.1-23.8C640.9,531.9,660,547.2,700.4,544.5z"/>
		<path class="st13" d="M700.4,544.5c40.5-2.8,75.8-20.3,87.3-30.5s17.5-31.5,17.5-31.5c0.4,15,0.4,26.3,0.4,26.3
			s-4.5,53.4-36.2,74.9s-56.7,14-56.7,14s-33.1-8.2-57.8-41.9c-5.3-7.6-10-15.5-14.1-23.8C640.9,531.9,660,547.2,700.4,544.5z"/>
		<path class="st14" d="M715.6,592.5c12.5,1.8,31.3-2,45.1-7.7c13.6-5.7,24-16.4,24-16.4c-4.2,5.9-9.4,11-15.3,15.2
			c-31.7,21.5-56.7,14-56.7,14s-11.7-2.9-26.3-12.3C695.9,588.6,705.7,591,715.6,592.5z"/>
	</g>
	<g id="Share_Options">
		<path d="M565.1,143.5c6.9,0,12.5,5.6,12.5,12.5v18.3c0,6.9-5.6,12.5-12.5,12.5l0,0c-6.9,0-12.5-5.6-12.5-12.5V156
			C552.6,149.1,558.2,143.5,565.1,143.5L565.1,143.5 M565.1,141.8c-7.8,0-14.2,6.4-14.2,14.2v18.3c0,7.8,6.4,14.2,14.2,14.2
			s14.2-6.4,14.2-14.2V156C579.3,148.2,573,141.8,565.1,141.8L565.1,141.8L565.1,141.8z"/>
		<path class="st3" d="M565.1,143.5c-6.9,0-12.5,5.6-12.5,12.5v18.3c0,6.9,5.6,12.5,12.5,12.5s12.5-5.6,12.5-12.5V156
			C577.6,149.1,572,143.5,565.1,143.5z"/>
		<path d="M240.1,143.5c6.9,0,12.5,5.6,12.5,12.5v18.3c0,6.9-5.6,12.5-12.5,12.5s-12.5-5.6-12.5-12.5V156
			C227.6,149.1,233.2,143.5,240.1,143.5 M240.1,141.8c-7.8,0-14.2,6.4-14.2,14.2v18.3c0,7.8,6.4,14.2,14.2,14.2s14.2-6.4,14.2-14.2
			V156C254.3,148.2,248,141.8,240.1,141.8L240.1,141.8L240.1,141.8z"/>
		<path class="st3" d="M240.1,143.5c-6.9,0-12.5,5.6-12.5,12.5v18.3c0,6.9,5.6,12.5,12.5,12.5s12.5-5.6,12.5-12.5V156
			C252.6,149.1,247,143.5,240.1,143.5z"/>
	</g>
	<g id="Buttons">
		<path class="st0" d="M140.8,247.2c1.4-2,1.2-2.9,1.2-2.9s0.2-0.9-1.2-2.9s-15-13.6-15.7-14s-28.5-2.2-31.4,1.3s-2.6,15.6-2.6,15.6
			s-0.3,12.1,2.6,15.6s30.7,1.7,31.4,1.3S139.4,249.2,140.8,247.2z"/>
		<path class="st15" d="M140.8,247.2c1.4-2,1.2-2.9,1.2-2.9s0.2-0.9-1.2-2.9c-0.9-1.3-6.9-6.6-11.2-10.3c-2.2,4.1-3.4,8.6-3.4,13.2
			c0,4.6,1.1,9.2,3.4,13.2C133.9,253.8,139.9,248.5,140.8,247.2z"/>
		<path class="st0" d="M150.6,231.6c2,1.4,2.9,1.2,2.9,1.2s0.9,0.2,2.9-1.2s13.6-15,14-15.7s2.2-28.5-1.3-31.4s-15.6-2.6-15.6-2.6
			s-12.1-0.3-15.6,2.6s-1.7,30.7-1.3,31.4S148.6,230.2,150.6,231.6z"/>
		<path class="st15" d="M150.6,231.6c2,1.4,2.9,1.2,2.9,1.2s0.9,0.2,2.9-1.2c1.3-0.9,6.6-6.9,10.3-11.2c-4.1-2.2-8.6-3.4-13.2-3.4
			c-4.6,0-9.2,1.1-13.2,3.4C144.1,224.7,149.3,230.7,150.6,231.6z"/>
		<path class="st0" d="M213.3,228.8c-2.9-3.5-30.7-1.7-31.4-1.3s-14.3,12-15.7,14s-1.2,2.9-1.2,2.9s-0.2,0.9,1.2,2.9
			s15,13.6,15.7,14s28.5,2.2,31.4-1.3s2.6-15.6,2.6-15.6S216.2,232.3,213.3,228.8z"/>
		<path class="st15" d="M177.5,231.2c-4.3,3.7-10.3,9-11.2,10.3c-1.4,2-1.2,2.9-1.2,2.9s-0.2,0.9,1.2,2.9c0.9,1.3,6.9,6.6,11.2,10.3
			c2.2-4.1,3.4-8.6,3.4-13.2C180.9,239.8,179.7,235.3,177.5,231.2z"/>
		<path class="st0" d="M156.4,257.1c-2-1.4-2.9-1.2-2.9-1.2s-0.9-0.2-2.9,1.2s-13.6,15-14,15.7s-2.2,28.5,1.3,31.4
			s15.6,2.6,15.6,2.6s12.1,0.3,15.6-2.6s1.7-30.7,1.3-31.4S158.4,258.5,156.4,257.1z"/>
		<path class="st15" d="M156.4,257.1c-2-1.4-2.9-1.2-2.9-1.2s-0.9-0.2-2.9,1.2c-1.3,0.9-6.6,6.9-10.3,11.2c4.1,2.2,8.6,3.4,13.2,3.4
			c4.6,0,9.2-1.1,13.2-3.4C163,264,157.7,258,156.4,257.1z"/>
	</g>
	<path id="Bottom_Padding" class="st16" d="M436.2,421h-67.9c-2.8,0-4.6,0.6-4.6-2.2l0,0c0-2.8,2.2-5,5-5h67.9c2.8,0,5,2.2,5,5l0,0
		C441.7,421.5,439,421,436.2,421z"/>
	<path id="Charger" d="M407.9,418.8h-36.5c-0.5,0-0.9-0.4-0.9-0.9l0,0l0,0c0-1.1,0.9-2,2-2h34.2c1.1,0,2,0.9,2,2l0,0
		c0.1,0.4-0.2,0.8-0.6,0.9C408,418.8,408,418.8,407.9,418.8z"/>
	<path id="Headphone_Jack" d="M430.1,419.6h-4.2c-0.9,0-1.7-0.8-1.7-1.7l0,0c0-1.5,1.3-2.8,2.8-2.8h1.9c1.5,0,2.8,1.3,2.8,2.8l0,0
		c0.1,0.8-0.5,1.6-1.3,1.7C430.3,419.6,430.2,419.6,430.1,419.6z"/>
	<g id="Touchpad">
		<g id="Touchpad-2">
			<path id="Background" class="st2" d="M534.4,128c-0.5-3.2-3.2-5.6-6.5-5.6H277.3c-3.3,0-6.1,2.4-6.5,5.6
				c-0.1,0.7-0.1,1.4-0.1,2.1v127.4c0,8.9,7.2,16.1,16.1,16.1l0,0h231.6c8.9,0,16.1-7.2,16.1-16.1l0,0V130.1
				C534.6,129.4,534.5,128.7,534.4,128z"/>
			<path id="Shadow-2" class="st3" d="M530,124.3c0-1-0.9-1.9-1.9-1.9H277c-1,0-1.9,0.9-1.9,1.9v129.2c0,8.6,7,15.6,15.6,15.6h223.8
				c8.6,0,15.6-7,15.6-15.6V130.4L530,124.3z"/>
			<path id="Dots" class="st3" d="M275.1,253.5c0,8.6,7,15.6,15.6,15.6h223.8c8.6,0,15.6-7,15.6-15.6V147H275.2v106.5H275.1z"/>
		</g>
	</g>
</g>
<path class="st2" d="M697.2,90.8c0,0-32.7-3.2-50.6-3.2S598.3,90,598.3,90s3.1-44.7,4.8-52s7.7-21.3,16.9-27.9S632,0,642.8,0
	s25.4,6.4,34.6,21.4C686.6,36.4,697.2,90.8,697.2,90.8z"/>
<path class="st3" d="M598.8,83.2c0,0,26.1-4.4,49-4.4s47.9,4.4,47.9,4.4c1,4.7,1.6,7.6,1.6,7.6s-32.7-3.2-50.6-3.2
	c-17.9,0-48.3,2.4-48.3,2.4S598.4,87.3,598.8,83.2z"/>
<g class="st17">
	<path d="M648.8,65.7l-3.2,2.6c-1.2,1.2-1.9,2.8-2,4.5h9.8v-2.6h-6.3c0.6-0.8,1.3-1.4,2.1-1.9c1-0.6,1.9-1.3,2.7-2.1
		c0.8-0.9,1.3-2.1,1.3-3.3c0-1.3-0.5-2.5-1.4-3.3c-1-0.8-2.2-1.2-3.5-1.2c-3.1,0-4.7,1.7-4.7,5h2.7c0-1.8,0.7-2.7,2.1-2.7
		c1-0.1,1.9,0.6,2,1.6c0,0.2,0,0.3,0,0.5C650.4,64,649.8,65.1,648.8,65.7z"/>
	<path d="M631.2,67.2h3c1.5,0,2.3,0.6,2.4,1.9s0.2,2.5,0.3,3.8h3.3v-0.4c-0.5-0.3-0.8-0.9-0.7-1.5c0-0.3,0-0.5,0.1-0.8v-0.7
		c0.2-1.4-0.6-2.8-1.8-3.5c1.4-0.5,2.3-1.9,2.2-3.4c0.1-1.2-0.4-2.3-1.3-3c-0.9-0.7-2-1.1-3.2-1h-7.3v14.3h3V67.2z M631.2,60.9h3.7
		c1.4,0,2.1,0.6,2.1,1.9s-0.8,1.9-2.3,1.9h-3.5V60.9z"/>
</g>
<path class="st2" d="M108.9,90.8c0,0,32.7-3.2,50.6-3.2s48.3,2.4,48.3,2.4s-3.1-44.7-4.8-52s-7.7-21.3-16.9-27.9S174.1,0,163.3,0
	s-25.4,6.4-34.6,21.4S108.9,90.8,108.9,90.8z"/>
<path class="st3" d="M207.3,83.2c0,0-26.1-4.4-49-4.4s-47.9,4.4-47.9,4.4c-1,4.7-1.6,7.6-1.6,7.6s32.7-3.2,50.6-3.2
	s48.3,2.4,48.3,2.4S207.7,87.3,207.3,83.2z"/>
<g class="st17">
	<path d="M173.4,65.7l-3.2,2.6c-1.2,1.2-1.9,2.8-2,4.5h9.8v-2.6h-6.2c0.6-0.8,1.3-1.4,2.1-1.9c1-0.6,1.9-1.3,2.7-2.1
		c0.8-0.9,1.3-2.1,1.3-3.3c0-1.3-0.5-2.5-1.4-3.3c-1-0.8-2.2-1.2-3.5-1.2c-3.1,0-4.7,1.7-4.7,5h2.7c0-1.8,0.7-2.7,2.1-2.7
		c1-0.1,1.9,0.6,2,1.6c0,0.2,0,0.3,0,0.5C175,64,174.4,65.1,173.4,65.7z"/>
	<polygon points="164.9,70.1 157.8,70.1 157.8,58.5 154.8,58.5 154.8,72.8 164.9,72.8 	"/>
</g>
<circle cx="388.7" cy="295.5" r="4.1"/>
<g>
	<path class="st0" d="M406.3,188.9c3.4-4.3,6.8-8.7,10.2-13C413.1,180.2,409.7,184.6,406.3,188.9c-1.2,0.9-1.8,2.1-2.2,3.4
		C404.5,191,405.1,189.9,406.3,188.9z"/>
	<path class="st0" d="M410.3,216.3c0.3,0,0.5-0.1,0.6-0.3C410.8,216.2,410.6,216.3,410.3,216.3C410.3,216.3,410.3,216.3,410.3,216.3
		z"/>
	<path class="st0" d="M348.6,242.1c1.3,0.9,2.5,1.7,3.7,2.6c0.8,0.6,1.6,1.2,2.4,1.8c-0.8-0.6-1.6-1.2-2.4-1.8
		C351.1,243.9,349.9,243,348.6,242.1z"/>
	<path class="st0" d="M444.4,137c-1.4,1.9-2.9,3.7-4.3,5.6c-0.3,0.3-0.6,0.7-0.9,1c0.3-0.4,0.6-0.7,0.9-1
		C441.5,140.8,443,138.9,444.4,137z"/>
	<path class="st0" d="M343.2,163.5c0.2,0.3,0.5,0.6,1,0.7c1.3,0.6,2.5,1.3,3.8,1.9c-1.3-0.6-2.5-1.3-3.8-1.9
		C343.7,164.1,343.4,163.9,343.2,163.5z"/>
	<path class="st0" d="M346.8,237c0.2-0.1,0.3-0.2,0.5-0.3c0.3-0.1,0.5-0.1,0.8-0.2c-0.3,0.1-0.5,0.1-0.8,0.2
		C347.1,236.8,346.9,236.9,346.8,237z"/>
	<path class="st0" d="M453.9,209.2c0.5-0.7,0.9-1.6,1.1-2.6c0-0.1,0-0.2,0-0.3c0,0.1,0,0.2,0,0.3
		C454.8,207.6,454.4,208.4,453.9,209.2z"/>
	<path class="st0" d="M358.8,240c1.4,0.9,2.8,1.8,4.4,2.5c-0.1,1.1-0.1,2.3-0.2,3.4c0.1-1.1,0.1-2.3,0.2-3.4
		C361.6,241.8,360.2,240.9,358.8,240z"/>
	<path class="st0" d="M400,223.6c-0.1-0.1-0.2-0.2-0.2-0.3C399.8,223.4,399.9,223.5,400,223.6c0.6,0.7,1.1,1.5,2,1.9
		C401.1,225.1,400.6,224.3,400,223.6z"/>
	<path class="st0" d="M410.4,216.6c0-0.1,0-0.2,0-0.3h0C410.4,216.4,410.4,216.5,410.4,216.6z"/>
	<path class="st0" d="M465.8,208.7c0-0.7-0.2-1-0.9-1.3c-2.9-1.2-5.7-2.6-8.6-3.9c-0.8-0.4-1.1-0.8-1-1.7c0.1-9.9,0.2-19.7,0.3-29.6
		c0-0.8,0.3-1.2,1-1.6c2.7-1.3,5.4-2.7,8.1-4c0.7-0.3,1-0.8,1-1.6c0-9.1,0-18.1,0-27.2c0-0.6,0-1.1,0-1.7c0-0.6-0.2-0.9-0.8-0.9
		c-0.6,0-1.2-0.1-1.8-0.1c-5.8,0.1-11.5,0.2-17.3,0.2c-1.1,0-1.9,0.4-2.6,1.3c-9.7,12.3-19.3,24.5-29,36.8
		c-3.8,4.8-7.6,9.6-11.5,14.5c-0.4-0.5-0.7-0.9-1-1.3c-13.2-16.7-26.4-33.4-39.6-50.1c-0.6-0.8-1.3-1.2-2.3-1.2
		c-5.9,0-11.8-0.1-17.7-0.2c-0.7,0-1.5,0-2.2,0.3c-0.3,0.4-0.2,0.8-0.2,1.3c0,9.5,0,19-0.1,28.4c0,0.8,0.3,1.2,1,1.5
		c2.7,1.4,5.5,2.7,8.2,4.1c0.6,0.3,0.9,0.6,0.9,1.4c0.1,9.9,0.2,19.9,0.3,29.8c0,0.8-0.3,1.2-1,1.5c-2.9,1.3-5.7,2.6-8.6,3.9
		c-0.6,0.3-0.9,0.5-0.9,1.2c0,8.9,0,17.9,0,26.8c0,0.6,0.1,1.2,0.7,1.6c1.7,1.3,3.4,2.6,5.1,3.9c0.4,0.3,0.7,0.5,1.2,0.1
		c1-0.8,2.2-1.2,3.3-1.8c0.5-0.3,0.9-0.3,1.4,0c2.6,1.7,5.3,3.4,8,5.1c0.7,0.4,0.7,0.9,0.6,1.5c-0.3,1.7-0.1,3.4-0.7,5.1
		c-0.2,0.4,0.1,0.7,0.4,0.9c2.8,2.1,5.6,4.3,8.4,6.4c0.8,0.6,1.3,0.3,1.3-0.7c0-0.3,0-0.7,0-1c-0.1-21.6-0.1-43.2-0.2-64.8
		c0-0.5-0.2-1,0.1-1.4c1.1-0.4,1.7,0.2,2.4,1c9.7,12.8,19.4,25.6,29.2,38.4c1.6,2.1,2.4,2.1,3.9,0c9.8-12.8,19.5-25.7,29.3-38.5
		c0.6-0.9,1.3-1.2,2.4-0.9c0,0.4,0,0.9,0,1.4c0,11.3,0,22.7-0.1,34c0,10.4-0.1,20.8-0.1,31.2c0,0.5-0.2,1.2,0.4,1.5
		c0.6,0.3,0.9-0.3,1.3-0.6c2.6-2,5.2-3.9,7.7-5.9c0.4-0.3,0.9-0.5,0.6-1.2c-0.5-1.7-0.4-3.5-0.7-5.2c-0.1-0.6,0.1-0.9,0.6-1.2
		c2.7-1.7,5.3-3.4,8-5.1c0.4-0.3,0.8-0.4,1.3-0.1c1.1,0.6,2.3,1.1,3.3,1.8c0.6,0.4,1,0.3,1.4,0c1.5-1.2,3-2.4,4.5-3.5
		c0.9-0.6,1.1-1.3,1.1-2.3C465.8,226.1,465.8,217.4,465.8,208.7z M463.6,236.5c-0.2,0.1-0.4,0.3-0.6,0.4c-1.2,0.9-2.3,2.3-3.6,2.5
		c-1.2,0.1-2.6-1.1-3.8-1.7c-0.7-0.4-1.2-0.3-1.8,0.1c-2.8,1.8-5.7,3.7-8.6,5.4c-0.7,0.4-1,1-0.9,1.8c0.2,1.6,0.3,3.1,0.5,4.7
		c0.1,0.6,0,1.1-0.6,1.6c-2.2,1.7-4.4,3.4-6.7,5.1c-0.3-0.5-0.2-1-0.2-1.5c0-21.2,0.1-42.5,0.1-63.7c0-0.8,0.5-1.8-0.6-2.3
		c-1.2-0.5-2.7-0.1-3.6,1c-9.8,12.9-19.6,25.8-29.5,38.7c-1.1,1.5-1.1,1.5-2.2,0c-9.8-12.8-19.5-25.7-29.3-38.5
		c-0.5-0.6-0.9-1.3-1.8-1.4c-2.2-0.2-2.6,0.1-2.6,2.3c0.1,21.3,0.1,42.6,0.1,63.9c0,0.4,0,0.9,0,1.7c-2.6-2-4.9-3.8-7.2-5.6
		c-0.5-0.4-0.3-0.9-0.2-1.4c0.1-1.6,0.3-3.1,0.5-4.7c0.1-0.8-0.2-1.2-0.8-1.6c-3-1.8-5.9-3.7-8.8-5.6c-0.6-0.4-1.1-0.4-1.7,0
		c-0.9,0.5-1.9,0.9-2.8,1.5c-0.8,0.5-1.3,0.3-1.9-0.2c-1.3-1.1-3.1-1.9-3.9-3.3c-0.8-1.4-0.2-3.4-0.2-5.1c0-7,0-13.9,0-20.9
		c0-0.9,0.3-1.4,1.1-1.8c2.8-1.2,5.5-2.5,8.3-3.7c0.7-0.3,1.1-0.7,1.1-1.5c-0.1-10.4-0.2-20.8-0.3-31.2c0-0.8-0.4-1.2-1.1-1.6
		c-2.7-1.3-5.4-2.7-8.1-4c-0.5-0.3-0.9-0.5-0.9-1.2c0.1-8,0.1-16,0.1-24c0-1.4,0-2.8,0-4.2c1.7,0,3.3,0,4.9,0
		c4.5,0,8.9,0.1,13.4,0.1c1,0,1.7,0.2,2.2,1.1c0.6,1,1.4,1.9,2.1,2.8c5.4,6.8,10.9,13.7,16.3,20.5c7.2,9,14.3,18.1,21.4,27.1
		c1.2,1.6,1.7,1.5,3-0.1c11.7-14.8,23.3-29.5,35-44.3c0.3-0.4,0.6-0.7,0.9-1c1.4-1.9,2.9-3.7,4.3-5.6c0.3-0.4,0.7-0.5,1.1-0.5
		c6.3,0,12.5,0,18.9,0c0,1.9,0,4,0,6.1c0,7.3,0,14.7,0.1,22c0,0.7-0.4,0.9-0.9,1.2c-2.7,1.3-5.3,2.7-8,4c-0.9,0.4-1.2,1-1.2,1.9
		c-0.1,10.2-0.2,20.4-0.3,30.5c0,1.1,0.3,1.6,1.3,2.1c2.7,1.1,5.4,2.5,8.1,3.6c0.7,0.3,1,0.7,1,1.6c0,8.4,0,16.7,0,25.1
		C464.6,235.5,464.3,236.1,463.6,236.5z"/>
	<path class="st0" d="M341.3,205.7c2.1-1,4.3-2.1,6.4-3c0.9-0.4,1.1-0.9,1.1-1.8c0-9.2,0.1-18.4,0.1-27.6c0-0.8-0.3-1.3-1-1.6
		c-2.2-1.1-4.4-2.3-6.7-3.5c-1.3-0.7-1.6-0.5-1.6,1c0,5.9,0,11.8,0,17.7c0,0-0.1,0-0.1,0c0,5.9,0,11.9,0,17.8
		C339.6,206.2,339.9,206.4,341.3,205.7z M340.9,170.8c0-0.4,0-0.9,0-1.6c2.2,1.2,4.3,2.2,6.3,3.3c0.5,0.2,0.5,0.6,0.5,1.1
		c0,5.3-0.1,10.6-0.1,15.9c0,3.7,0,7.3,0,11c0,0.4,0,0.8-0.5,1c-2,0.9-4,1.9-6.1,2.9c-0.2-1.3-0.2-2.4-0.1-3.5
		C340.9,190.9,340.9,180.9,340.9,170.8z"/>
	<path class="st0" d="M465.6,169c0-1.5-0.3-1.7-1.6-1c-2.2,1.2-4.4,2.4-6.7,3.5c-0.6,0.3-1,0.7-1,1.5c0.1,9.3,0.1,18.6,0.1,27.9
		c0,0.9,0.4,1.3,1.1,1.7c2.1,1,4.3,2,6.4,3c1.4,0.7,1.7,0.5,1.7-1.1c0-5.9,0-11.9,0-17.8c0,0-0.1,0-0.1,0
		C465.6,180.9,465.6,174.9,465.6,169z M464.4,189.8c0,4.8,0,9.6,0,14.7c-2.2-1-4.3-2-6.3-3c-0.4-0.2-0.4-0.6-0.4-1
		c0-4.4,0-8.8,0-13.2c0-4.6-0.1-9.2-0.1-13.8c0-0.5,0.1-0.8,0.5-1c2-1,4-2.1,6.2-3.3C464.4,176.2,464.4,183,464.4,189.8z"/>
	<path class="st0" d="M356.3,243.4c-1.3-0.7-2.6-1.4-3.6-2.3c-1.7-1.6-3.2-1.2-4.9,0c-1.1,0.9-1.2,1.1-0.1,1.9
		c2.6,1.9,5.2,3.9,7.8,5.8c0.8,0.5,1.5,1.7,2.5,1.2c0.9-0.5,0.2-1.7,0.4-2.5C359,245.3,358,244.2,356.3,243.4z M357.2,248.5
		c-0.9-0.7-1.7-1.3-2.5-1.9c-0.8-0.6-1.6-1.2-2.4-1.8c-1.2-0.9-2.5-1.7-3.7-2.6c1.8-1.3,1.8-1.3,4.5,0.7c0.7,0.4,1.4,0.9,2.1,1.3
		C357.5,245.5,357.5,245.5,357.2,248.5z"/>
	<path class="st0" d="M455.9,240.2c-0.7-0.4-1.2-0.5-2,0c-1.6,1.2-3.3,2.2-5,3.2c-1.6,0.9-2.6,2-2.1,3.6c0,0.7,0,1,0,1.3
		c0.1,0.6-0.3,1.3,0.4,1.7c0.7,0.4,1.2-0.2,1.7-0.6c2.4-1.8,4.8-3.6,7.3-5.4C459.1,241.9,459.1,242,455.9,240.2z M452.5,245.1
		c-1.3,1.2-2.8,2.2-4.3,3.3c-0.5-2.7-0.5-2.7,1.7-4.2c0.5-0.3,0.9-0.6,1.4-0.8c0.7-0.5,1.5-0.9,2.2-1.5c1.1-1,2.1-0.9,3.1,0.3
		C455.3,243.1,454,244.3,452.5,245.1z"/>
	<path class="st0" d="M463.5,208c-2.7-1.2-5.4-2.5-8.1-3.6c-1-0.4-1.3-1-1.3-2.1c0.1-10.2,0.3-20.4,0.3-30.5c0-1,0.3-1.5,1.2-1.9
		c2.7-1.3,5.3-2.7,8-4c0.5-0.3,0.9-0.5,0.9-1.2c-0.1-7.3-0.1-14.7-0.1-22v0c-0.5,0-1,0-1.5,0c0.1,6.7,0.1,13.4,0.2,20.1
		c0,1.1-0.3,1.6-1.3,2.1c-2.7,1.2-5.2,2.6-7.9,3.8c-0.8,0.4-1.2,0.8-1.1,1.8c0.1,11,0.2,21.9,0.2,32.9c0,0.8,0.3,1.2,1,1.6
		c2.7,1.2,5.4,2.5,8.1,3.7c0.8,0.4,1.1,0.8,1.1,1.7c0,7.8,0,15.6,0.1,23.4c0,0.8-0.3,1.3-0.8,1.8c-3,2.7-3,2.7-6.5,1.2
		c-1.1-0.5-1.9-0.4-2.9,0.2c-2.9,1.9-5.8,3.7-8.8,5.4c-0.8,0.5-1.1,1-1,1.9c0.1,1.7,0.1,3.4,0.2,5.2c0,0.5,0.1,1-0.4,1.4
		c-1.1,0.8-2.2,1.7-3.8,2.5c0.2-22.1,0.4-43.8,0.6-65.9c-2.1,0-4.1,0-6.1,0c-0.6,0-0.8,0.6-1.1,1c-9.2,12.3-18.4,24.7-27.5,37.1
		c-0.9,1.2-1.8,1.9-3.4,1.7c-4-5.4-8.1-10.9-12.2-16.4c-5.5-7.5-11.1-14.9-16.6-22.4c-0.5-0.7-1.1-1-2-1c-1.7,0.1-3.4,0-5.3,0
		c0.2,22,0.4,43.8,0.6,66c-1.7-0.9-2.9-1.8-4-2.7c-0.4-0.3-0.2-0.8-0.2-1.2c0.1-1.8,0.1-3.6,0.2-5.4c0-0.7-0.2-1.1-0.8-1.5
		c-3.3-2-6.5-4-9.7-6c-0.5-0.3-0.9-0.3-1.4-0.1c-0.4,0.2-0.8,0.4-1.2,0.5c-1.1,0.3-2.1,1.4-3.1,1c-1.4-0.5-2.4-1.8-3.6-2.9
		c-0.4-0.3-0.3-0.8-0.3-1.3c0-7.8,0.1-15.6,0.1-23.4c0-0.9,0.3-1.3,1.1-1.7c2.7-1.2,5.4-2.5,8.1-3.7c0.7-0.3,1-0.7,1-1.6
		c0-11,0.1-21.9,0.2-32.9c0-1-0.3-1.4-1.1-1.8c-2.6-1.3-5.2-2.6-7.9-3.8c-1-0.5-1.3-1-1.3-2.1c0.1-6.7,0.2-13.5,0.3-20.2
		c0-0.6,0-1.2-0.1-1.8c-0.5,0-1,0-1.5,0c0,8,0,16-0.1,24c0,0.7,0.4,0.9,0.9,1.2c2.7,1.3,5.4,2.7,8.1,4c0.7,0.3,1.1,0.8,1.1,1.6
		c0.1,10.4,0.2,20.8,0.3,31.2c0,0.9-0.3,1.2-1.1,1.5c-2.8,1.2-5.5,2.5-8.3,3.7c-0.8,0.4-1.1,0.8-1.1,1.8c0,7,0,13.9,0,20.9
		c0,1.7-0.6,3.7,0.2,5.1c0.8,1.4,2.6,2.2,3.9,3.3c0.7,0.6,1.2,0.7,1.9,0.2c0.9-0.6,1.9-1,2.8-1.5c0.6-0.3,1.1-0.4,1.7,0
		c2.9,1.9,5.9,3.8,8.8,5.6c0.6,0.4,0.9,0.8,0.8,1.6c-0.2,1.6-0.3,3.1-0.5,4.7c0,0.5-0.3,1,0.2,1.4c2.3,1.8,4.7,3.6,7.2,5.6
		c0-0.8,0-1.2,0-1.7c0-21.3-0.1-42.6-0.1-63.9c0-2.2,0.4-2.5,2.6-2.3c0.9,0.1,1.3,0.8,1.8,1.4c9.8,12.8,19.5,25.7,29.3,38.5
		c1.1,1.5,1.1,1.5,2.2,0c9.8-12.9,19.6-25.8,29.5-38.7c0.8-1.1,2.3-1.5,3.6-1c1.2,0.5,0.6,1.5,0.6,2.3c0,21.2-0.1,42.5-0.1,63.7
		c0,0.5-0.1,1,0.2,1.5c2.3-1.7,4.5-3.4,6.7-5.1c0.6-0.4,0.6-0.9,0.6-1.6c-0.2-1.6-0.3-3.1-0.5-4.7c-0.1-0.9,0.2-1.4,0.9-1.8
		c2.9-1.8,5.7-3.6,8.6-5.4c0.6-0.4,1.1-0.5,1.8-0.1c1.3,0.7,2.6,1.9,3.8,1.7c1.3-0.2,2.4-1.6,3.6-2.5c0.2-0.1,0.4-0.3,0.6-0.4
		c0.7-0.4,1-1,0.9-1.8c0-8.4-0.1-16.7,0-25.1C464.5,208.7,464.3,208.3,463.5,208z"/>
	<path class="st0" d="M362.1,140.7c3.6,4.6,7.1,9.2,10.7,13.7c9.4,12,18.9,23.9,28.4,35.9c0.9,1.1,0.9,2.4,1.6,3.9
		c0.2-3.7,2.9-5.7,4.8-8.2c11.2-14.3,22.4-28.5,33.7-42.7c0.1-0.2,0.2-0.4,0.3-0.6c-0.5,0-1,0-1.6-0.1c-0.3,0.3-0.6,0.7-0.9,1
		c-11.7,14.8-23.3,29.5-35,44.3c-1.3,1.6-1.7,1.6-3,0.1c-7.1-9-14.3-18.1-21.4-27.1c-5.4-6.8-10.9-13.7-16.3-20.5
		C363.1,140.9,362.6,140.6,362.1,140.7z"/>
	<path class="st0" d="M441.6,142.7c1-1.2,2.1-2.5,3.1-3.7c0.3-0.4,0.6-0.8,1.2-0.8c5.5,0,11.1,0,16.8,0c0.3,1.4,0,2.9,0.2,4.5
		c0.5,0,1,0,1.5,0v0c0-2.1,0-4.1,0-6.1c-6.4,0-12.6,0-18.9,0c-0.4,0-0.8,0.1-1.1,0.5c-1.4,1.9-2.9,3.7-4.3,5.6
		C440.6,142.6,441.1,142.7,441.6,142.7z"/>
	<path class="st0" d="M342.6,138.1c0.5-0.3,1-0.2,1.4-0.2c4.7,0.1,9.4,0.2,14.1,0.2c1.4,0,2.4,0.3,3.1,1.5c0.2,0.4,0.6,0.7,0.9,1
		c0.5-0.1,1,0.2,1.4-0.3c-0.7-0.9-1.4-1.8-2.1-2.8c-0.5-0.8-1.2-1.1-2.2-1.1c-4.5,0-8.9,0-13.4-0.1c-1.6,0-3.2,0-4.9,0
		c0,1.4,0,2.8,0,4.2c0.5,0,1,0,1.5,0C342.5,139.8,342.5,138.9,342.6,138.1z"/>
	<path class="st0" d="M344.2,188.9c1-0.8,1.9-0.9,2.7,0.1c0.2,0.2,0.4,0.4,0.6,0.5c0-5.3,0.1-10.6,0.1-15.9c0-0.4,0-0.8-0.5-1.1
		c-2-1.1-4.1-2.1-6.3-3.3c0,0.7,0,1.1,0,1.6c0,10,0,20.1,0,30.1c0.8-2.4,0.9-4.9,1.4-7.3C342.6,192,342.6,190.1,344.2,188.9z"/>
	<path class="st0" d="M341,204.5c2.1-1,4.1-2,6.1-2.9c0.5-0.2,0.5-0.6,0.5-1c0-3.7,0-7.3,0-11c-0.2-0.2-0.5-0.3-0.6-0.5
		c-0.9-1-1.7-0.9-2.7-0.1c-1.5,1.3-1.5,3.1-1.9,4.8c-0.5,2.4-0.6,4.9-1.4,7.3C340.8,202.1,340.8,203.2,341,204.5z"/>
	<path class="st0" d="M458.5,186c-0.2,0.4-0.5,0.9-0.8,1.3c0,4.4,0,8.8,0,13.2c0,0.4-0.1,0.8,0.4,1c2.1,1,4.1,2,6.3,3
		c0-5.1,0-9.9,0-14.7c-0.9-2.2-1-4.7-2.1-7C460.5,183.3,459.4,184.5,458.5,186z"/>
	<path class="st0" d="M457.7,173.5c0,4.6,0.1,9.2,0.1,13.8c0.3-0.4,0.5-0.9,0.8-1.3c0.8-1.5,2-2.7,3.8-3.2c1.1,2.3,1.2,4.8,2.1,7
		c0-6.8,0-13.6,0-20.5c-2.2,1.2-4.2,2.2-6.2,3.3C457.8,172.7,457.7,173.1,457.7,173.5z"/>
	<path class="st0" d="M355.3,244.1c-0.7-0.4-1.4-0.9-2.1-1.3c0.1,0.8-0.5,1.3-0.8,1.9c0.8,0.6,1.6,1.2,2.4,1.8
		c0.8,0.6,1.6,1.3,2.5,1.9C357.5,245.5,357.5,245.5,355.3,244.1z"/>
	<path class="st0" d="M353.1,242.8c-2.7-2-2.7-2-4.5-0.7c1.3,0.9,2.5,1.7,3.7,2.6C352.7,244.1,353.2,243.6,353.1,242.8z"/>
	<path class="st0" d="M451.3,243.4c-0.5,0.3-1,0.5-1.4,0.8c-2.2,1.4-2.2,1.5-1.7,4.2c1.5-1.1,3-2,4.3-3.3
		C452.3,244.4,451.4,244.2,451.3,243.4z"/>
	<path class="st0" d="M453.5,241.9c-0.7,0.6-1.4,1-2.2,1.5c0,0.8,1,1,1.1,1.7c1.5-0.8,2.8-2,4.2-3
		C455.6,241,454.7,240.9,453.5,241.9z"/>
	<path class="st0" d="M462.7,138.2c-5.7,0-11.2,0-16.8,0c-0.6,0-0.9,0.4-1.2,0.8c-1,1.2-2.1,2.5-3.1,3.7c-0.1,0.2-0.2,0.4-0.3,0.6
		c-11.2,14.2-22.5,28.4-33.7,42.7c-1.9,2.4-4.6,4.4-4.8,8.2c-0.7-1.5-0.8-2.8-1.6-3.9c-9.5-11.9-18.9-23.9-28.4-35.9
		c-3.6-4.6-7.2-9.1-10.7-13.7c-0.3-0.3-0.7-0.6-0.9-1c-0.7-1.2-1.7-1.5-3.1-1.5c-4.7,0-9.4-0.1-14.1-0.2c-0.4,0-0.9-0.1-1.4,0.2
		c-0.1,0.8-0.1,1.7-0.2,2.5c0,0.6,0.1,1.2,0.1,1.8c-0.1,6.7-0.1,13.5-0.3,20.2c0,1.1,0.3,1.6,1.3,2.1c2.7,1.2,5.2,2.6,7.9,3.8
		c0.8,0.4,1.2,0.8,1.1,1.8c-0.1,11-0.2,21.9-0.2,32.9c0,0.8-0.3,1.2-1,1.6c-2.7,1.2-5.4,2.5-8.1,3.7c-0.8,0.4-1.1,0.8-1.1,1.7
		c0,7.8-0.1,15.6-0.1,23.4c0,0.5-0.1,1,0.3,1.3c1.1,1,2.1,2.3,3.6,2.9c1,0.4,2.1-0.7,3.1-1c0.4-0.1,0.8-0.3,1.2-0.5
		c0.5-0.2,0.9-0.2,1.4,0.1c3.2,2,6.5,4,9.7,6c0.6,0.4,0.8,0.8,0.8,1.5c-0.1,1.8-0.1,3.6-0.2,5.4c0,0.4-0.1,0.9,0.2,1.2
		c1.2,0.9,2.4,1.9,4,2.7c-0.2-22.2-0.4-44-0.6-66c1.9,0,3.6,0,5.3,0c0.9,0,1.4,0.3,2,1c5.5,7.5,11.1,14.9,16.6,22.4
		c4.1,5.5,8.2,11,12.2,16.4c1.6,0.2,2.5-0.5,3.4-1.7c9.1-12.4,18.3-24.7,27.5-37.1c0.3-0.4,0.5-1,1.1-1c2,0,4,0,6.1,0
		c-0.2,22.1-0.4,43.9-0.6,65.9c1.7-0.8,2.7-1.7,3.8-2.5c0.5-0.3,0.5-0.9,0.4-1.4c-0.1-1.7-0.1-3.4-0.2-5.2c-0.1-0.9,0.2-1.4,1-1.9
		c3-1.8,5.9-3.5,8.8-5.4c1-0.7,1.8-0.7,2.9-0.2c3.6,1.5,3.6,1.5,6.5-1.2c0.6-0.5,0.8-1,0.8-1.8c-0.1-7.8-0.1-15.6-0.1-23.4
		c0-0.9-0.3-1.3-1.1-1.7c-2.7-1.2-5.4-2.5-8.1-3.7c-0.7-0.3-1-0.7-1-1.6c0-11-0.1-21.9-0.2-32.9c0-1,0.3-1.4,1.1-1.8
		c2.6-1.3,5.2-2.6,7.9-3.8c1-0.5,1.3-1,1.3-2.1c-0.1-6.7-0.1-13.4-0.2-20.1C462.7,141.1,463,139.5,462.7,138.2z M460.6,164.4
		c-2.2,1.4-4.7,2.3-7.1,3.5c-1.1,0.6-1.6,1.3-1.5,2.5c0.3,11.1,0.3,22.2,0.2,33.3c0,0.9,0.3,1.4,1.1,1.7c0.6,0.2,1.1,0.6,1.7,0.9
		c0.1,0.1,0.2,0.2,0.3,0.3c0,0,0,0,0,0c2.4,0.7,4.5,2,6.7,2.9c0.6,0.2,0.5,0.7,0.5,1.2c0,7.7,0,15.4,0,23.1c0,0.5-0.1,1-0.6,1.3
		c-0.8,0.6-1.5,1.2-2.2,1.9c-0.5,0.5-0.9,0.3-1.2-0.2c-1.2,0-2.1-0.6-3.1-1c-0.8-0.3-1.3-0.2-2,0.2c-3.2,2-6.4,3.9-9.6,5.8
		c-0.9,0.5-1.5,1.1-1.3,2.3c0.2,1.7-0.2,3.5,0.3,5.2c0.2,0.6-0.3,1-0.8,1.3c-0.6,0.5-1.1,0.9-1.9,1.2c0-3.8,0-7.5,0-11.1
		c0-0.6,0.1-1.2,0.1-1.8c0-8.4-0.1-16.7,0.1-25.1c0.3-8.4,0.1-16.8,0.2-25.2c0-1.9,0-1.9-1.9-1.9c-1.5,0-3.1,0-4.6,0
		c-0.9,0-1.4,0.3-2,1c-6.9,9.3-13.8,18.5-20.6,27.8c-0.1,0.2-0.2,0.4-0.4,0.6c-0.1,0.2-0.3,0.3-0.6,0.3c0,0.1,0,0.2,0,0.3
		c0,0.1,0,0.2-0.1,0.3c-0.1,0.2-0.2,0.3-0.5,0.3c0,0.3-0.1,0.5-0.4,0.6c-1.8,2.8-4.1,5.4-5.6,8.2c-0.8,0.1-1.4-0.1-1.9-0.3
		c-0.8-0.4-1.4-1.2-2-1.9c-0.1-0.1-0.2-0.2-0.2-0.3c0-0.1-0.1-0.2-0.1-0.3c-0.2-0.1-0.3-0.3-0.3-0.6c-1.4-0.9-2.1-2.3-3-3.6
		c-6.3-8.4-12.5-16.9-18.8-25.4c-1.5-2-3-3.9-4.4-5.9c-0.5-0.6-0.9-0.9-1.7-0.9c-1.8,0-3.6,0.1-5.4,0c-1,0-1.3,0.3-1.3,1.3
		c0,7.7-0.1,15.3,0.1,23c0.3,9.1,0,18.2,0.3,27.3c0.1,4.2,0.2,8.4,0.2,12.7c0,0.3,0.1,0.6-0.2,0.9c-0.7-0.4-1.3-0.9-2-1.4
		c-0.5-0.3-0.5-0.7-0.5-1.2c0.1-1.1,0.2-2.3,0.2-3.4c0.1-1.1,0.1-2.3,0.2-3.4c-1.5-0.7-3-1.6-4.4-2.5c-0.5-0.3-0.9-0.6-1.4-0.9
		c-0.6-0.4-1.3-0.8-1.9-1.2c-0.9-0.5-1.8-1-2.6-1.6c-1.3-1.1-2.6-1.1-4-0.2c-0.2,0.1-0.5,0.2-0.8,0.3s-0.5,0.1-0.8,0.2
		c-0.2,0.1-0.3,0.3-0.5,0.3c-0.2,0.1-0.3,0.1-0.5,0.1c-0.3,0-0.7-0.2-1.1-0.5c-1.8-1.3-2.5-2.8-2.5-5.1c0.2-6.9,0.1-13.7,0.1-20.6
		c0-0.9,0.3-1.5,1.1-1.8c2.1-0.8,4-2.1,6.2-2.6c0.4-0.7,1.3-0.7,1.9-1.1c0.9-0.4,1.1-1.1,1.1-2c0-6.7,0-13.4,0-20.2
		c0-4.3,0.1-8.5,0.2-12.8c0-1.3-0.4-2-1.6-2.6c-1.3-0.6-2.6-1.2-3.8-1.8c-1.3-0.6-2.5-1.3-3.8-1.9c-0.5-0.1-0.8-0.3-1-0.7
		c-0.1-0.1-0.1-0.2-0.1-0.4c0-0.2-0.1-0.4,0-0.6c0.1-6.6,0.1-13.3,0.1-19.9c0-1.2,0.2-2.5,0.1-3.7c3.7,0,7.3,0,10.9,0
		c1.3,0,2.6,0.2,3.9,0.1c1.1-0.1,1.9,0.3,2.6,1.2c5,6.4,10,12.7,15,19c7.6,9.7,15.3,19.3,22.9,29c0.3,0.4,0.7,0.9,1,1.3
		c2,1.8,2.1,4.4,3.3,6.7c0.5-1.3,0.8-2.6,1.2-3.9c0.4-1.3,1.1-2.5,2.2-3.4c3.4-4.3,6.8-8.7,10.2-13c9.3-11.8,18.6-23.5,27.8-35.3
		c1-1.2,1.9-1.7,3.5-1.7c4.3,0,8.5-0.1,12.8-0.2c0.5,0,0.9,0,1.4,0c0.3,8.1,0.1,16,0.3,24C462.3,164,461.4,164.1,460.6,164.4z"/>
	<polygon class="st0" points="410.3,216.3 410.3,216.3 410.3,216.3 410.3,216.3 	"/>
	<path class="st0" d="M455.4,156.3c-4.7,0.1-9.4,0.2-14,0.3c-0.6,0-1,0.3-1.4,0.7c-3.5,3.4-6.9,6.8-10.4,10.1
		c-4.5,4.2-8.9,8.4-13.3,12.7c-2.8,2.8-5.8,5.5-8.7,8.2c-0.4,0.3-0.7,0.8-1.3,0.7c-1.2,0.9-1.8,2.1-2.2,3.4
		c-0.4,1.3-0.7,2.6-1.2,3.9c-1.3-2.3-1.3-5-3.3-6.7c-0.7,0.7-1.2,0-1.5-0.3c-1.8-1.5-3.5-3-5.2-4.6c-6.2-5.5-12.4-11.1-18.5-16.6
		c-3.2-2.8-6.3-5.7-9.5-8.6c-0.8-0.7-1.5-1.4-2.3-2c-0.4-0.4-1-0.6-1.5-0.5c-4.4,0.5-8.7,0.2-13.1,0.2c-1.1,0-1.5,0.3-1.8,1.4
		c-0.5,1.9-1.2,3.8-1.8,5.7c1.3,0.6,2.5,1.3,3.8,1.9c1.3,0.6,2.5,1.2,3.8,1.8c1.2,0.5,1.6,1.3,1.6,2.6c-0.1,4.3-0.2,8.5-0.2,12.8
		c0,6.7,0,13.4,0,20.2c0,0.9-0.2,1.6-1.1,2c-0.1,0.4-0.1,0.8-0.2,1.2c-1.4,4.5,0.5,8.1,5.1,9.4c1.5,0.4,3.1,0.5,4.7,0.5
		c1.1,0,0.9-1,1.4-1.4c-0.2,9.1,0.5,18.2,0.2,27.3c-0.1,1.1-0.1,2.3-0.2,3.4c-0.1,1.1-0.1,2.3-0.2,3.4c0,0.5,0,0.9,0.5,1.2
		c0.7,0.4,1.4,0.9,2,1.4c0.3-0.3,0.2-0.6,0.2-0.9c0-4.2-0.1-8.4-0.2-12.7c-0.3-9.1,0-18.2-0.3-27.3c-0.3-7.7-0.1-15.3-0.1-23
		c0-1,0.3-1.3,1.3-1.3c1.8,0.1,3.6,0,5.4,0c0.8,0,1.3,0.3,1.7,0.9c1.4,2,2.9,4,4.4,5.9c6.3,8.5,12.5,16.9,18.8,25.4
		c0.9,1.2,1.6,2.7,3,3.6c0,0.2,0,0.4,0.3,0.6c0,0.1,0,0.2,0.1,0.3c0,0.1,0.1,0.2,0.2,0.3c0-0.2,0-0.5-0.3-0.6c0-0.2,0-0.4-0.3-0.6
		c0,0,0,0,0,0c-1-2.6-2.7-4.8-4-7.2c-2.3-4.1-4.8-8.1-7.2-12.2c-0.1-0.1-0.1-0.3-0.2-0.7c10.2-0.1,20.2,0.3,30.5,0.7
		c-1.9,2.9-3.6,5.4-5.2,7.9c-1.1,1.7-2.3,3.5-3,5.4c0,0,0,0,0,0c-0.4,0.1-0.6,0.4-0.6,0.8c-0.2,0.1-0.3,0.4-0.3,0.6
		c0.3-0.1,0.4-0.3,0.4-0.6c0.3,0,0.4-0.1,0.5-0.3c0-0.1,0.1-0.2,0.1-0.3c0-0.1,0-0.2,0-0.3c0,0,0,0,0,0h0c0.3,0,0.5-0.1,0.6-0.3
		c0.1-0.2,0.2-0.4,0.4-0.6c6.9-9.3,13.8-18.5,20.6-27.8c0.5-0.7,1.1-1,2-1c1.5,0.1,3.1,0,4.6,0c1.9,0,1.9,0,1.9,1.9
		c-0.1,8.4,0,16.8-0.2,25.2c-0.3,8.4-0.1,16.7-0.1,25.1c0,0.6-0.1,1.2-0.1,1.8c0,3.7,0,7.4,0,11.1c0.7-0.3,1.3-0.7,1.9-1.2
		c0-5.2-0.2-10.4,0-15.6c0.4-6.4,0.1-12.8,0.2-19.2c0-1.8-0.1-3.6-0.5-5.4c-0.2-0.8,0-1.6,0-2.8c0.3,0.8,0.6,1.3,0.8,1.8
		c1,2.6,1.2,2.7,4,2.7c1.8,0,3.5-0.6,5.2-1.2c1-0.4,1.7-1,2.3-1.7c0.5-0.7,0.9-1.6,1.1-2.6c0-0.1,0-0.2,0-0.3
		c-0.6-0.3-1.1-0.6-1.7-0.9c-0.8-0.3-1.1-0.8-1.1-1.7c0-11.1,0.1-22.2-0.2-33.3c0-1.2,0.4-1.9,1.5-2.5c2.4-1.2,4.9-2.1,7.1-3.5
		c-1.2-2.4-2.5-4.8-3.7-7.2C456.5,156.6,456.1,156.3,455.4,156.3z"/>
	<path class="st0" d="M344.2,164.2c0.6-1.9,1.3-3.8,1.8-5.7c0.3-1.1,0.7-1.4,1.8-1.4c4.4-0.1,8.7,0.3,13.1-0.2
		c0.6-0.1,1.1,0.1,1.5,0.5c0.8,0.7,1.5,1.3,2.3,2c3.2,2.9,6.3,5.7,9.5,8.6c6.2,5.5,12.3,11.1,18.5,16.6c1.7,1.5,3.5,3.1,5.2,4.6
		c0.4,0.3,0.8,1.1,1.5,0.3c-0.3-0.4-0.7-0.9-1-1.3c-7.6-9.7-15.3-19.3-22.9-29c-5-6.3-10-12.7-15-19c-0.7-0.9-1.4-1.3-2.6-1.2
		c-1.3,0.1-2.6-0.1-3.9-0.1c-3.6,0-7.2,0-10.9,0c0.2,1.3-0.1,2.5-0.1,3.7c-0.1,6.6-0.1,13.3-0.1,19.9c0,0.2,0,0.4,0,0.6
		c0,0.1,0.1,0.3,0.1,0.4C343.4,163.9,343.7,164.1,344.2,164.2z"/>
	<path class="st0" d="M460.6,138.7c-4.3,0.1-8.5,0.2-12.8,0.2c-1.6,0-2.5,0.5-3.5,1.7c-9.2,11.8-18.6,23.5-27.8,35.3
		c-3.4,4.3-6.8,8.7-10.2,13c0.6,0.1,0.9-0.4,1.3-0.7c2.9-2.7,5.8-5.4,8.7-8.2c4.4-4.3,8.8-8.5,13.3-12.7c3.5-3.3,6.9-6.7,10.4-10.1
		c0.4-0.4,0.8-0.7,1.4-0.7c4.7-0.1,9.4-0.1,14-0.3c0.8,0,1.2,0.3,1.5,1c1.2,2.4,2.5,4.8,3.7,7.2c0.8-0.3,1.8-0.4,1.8-1.7
		c-0.2-8,0-15.9-0.3-24C461.5,138.7,461.1,138.7,460.6,138.7z"/>
	<path class="st0" d="M458.1,225.3c-0.1-4.2-0.2-8.4-0.3-12.5c0-1.3-0.7-2.4-1.3-3.5c-0.5-0.9-1.2-1.7-1.2-2.8c-0.1,0-0.2,0-0.3,0
		c-0.2,1-0.5,1.9-1.1,2.6c-0.5,0.7-1.3,1.3-2.3,1.7c-1.7,0.7-3.4,1.2-5.2,1.2c-2.8,0-3-0.1-4-2.7c-0.2-0.5-0.4-1-0.8-1.8
		c0,1.2-0.1,2,0,2.8c0.4,1.8,0.5,3.6,0.5,5.4c-0.2,6.4,0.1,12.8-0.2,19.2c-0.3,5.2-0.1,10.4,0,15.6c0.5-0.3,0.9-0.7,0.8-1.3
		c-0.4-1.7-0.1-3.5-0.3-5.2c-0.1-1.2,0.4-1.8,1.3-2.3c3.2-1.9,6.4-3.8,9.6-5.8c0.7-0.4,1.2-0.6,2-0.2c1,0.4,2,1,3.1,1
		c-0.1-3.2-0.2-6.5-0.3-9.7C458.2,226.4,458.1,225.8,458.1,225.3z"/>
	<path class="st0" d="M362.9,215.2c-0.4,0.4-0.3,1.4-1.4,1.4c-1.6,0-3.2-0.1-4.7-0.5c-4.6-1.3-6.5-4.9-5.1-9.4
		c0.1-0.4,0.2-0.8,0.2-1.2c-0.6,0.4-1.5,0.3-1.9,1.1c-0.9,1.5-1.9,3-2.7,4.5c-0.9,1.8-0.5,3.8-0.4,5.8c0.1,2,0.1,4,0.1,6
		c0,4.6,0,9.3,0,13.9c0.3-0.1,0.5-0.1,0.8-0.2s0.5-0.2,0.8-0.3c1.4-0.8,2.7-0.8,4,0.2c0.8,0.6,1.7,1.1,2.6,1.6
		c0.6,0.4,1.3,0.8,1.9,1.2c0.5,0.3,0.9,0.6,1.4,0.9c1.4,0.9,2.8,1.8,4.4,2.5C363.5,233.4,362.8,224.3,362.9,215.2z"/>
	<path class="st0" d="M409.8,217.1c0-0.4,0.2-0.7,0.6-0.8c0,0,0,0,0,0c0.8-2,1.9-3.7,3-5.4c1.6-2.5,3.3-5,5.2-7.9
		c-10.3-0.4-20.4-0.7-30.5-0.7c0.1,0.4,0.1,0.5,0.2,0.7c2.4,4.1,4.9,8.1,7.2,12.2c1.4,2.4,3.1,4.6,4,7.2c0,0,0,0,0,0
		c0.2,0.1,0.3,0.3,0.3,0.6c0.3,0.1,0.3,0.4,0.3,0.6c0.6,0.7,1.1,1.5,2,1.9c0.5,0.3,1.1,0.4,1.9,0.3c1.5-2.8,3.7-5.3,5.6-8.2
		C409.5,217.5,409.5,217.2,409.8,217.1z"/>
	<path class="st0" d="M347.2,222.7c0-2,0-4-0.1-6c-0.1-1.9-0.5-3.9,0.4-5.8c0.8-1.6,1.8-3,2.7-4.5c-2.2,0.5-4.1,1.9-6.2,2.6
		c-0.9,0.3-1.1,0.9-1.1,1.8c0,6.9,0.1,13.7-0.1,20.6c-0.1,2.3,0.6,3.8,2.5,5.1c0.4,0.3,0.7,0.4,1.1,0.5c0.2,0,0.3,0,0.5-0.1
		c0.2-0.1,0.3-0.2,0.5-0.3C347.3,232,347.3,227.4,347.2,222.7z"/>
	<path class="st0" d="M455.3,206.5c0,1.1,0.7,1.9,1.2,2.8c0.6,1.1,1.3,2.2,1.3,3.5c0.1,4.2,0.2,8.4,0.3,12.5c0,0.6,0.1,1.1,0.1,1.7
		c0.1,3.2,0.2,6.5,0.3,9.7c0.3,0.5,0.7,0.7,1.2,0.2c0.7-0.6,1.5-1.3,2.2-1.9c0.5-0.4,0.6-0.8,0.6-1.3c0-7.7,0-15.4,0-23.1
		c0-0.5,0-0.9-0.5-1.2C459.7,208.5,457.6,207.2,455.3,206.5C455.2,206.5,455.2,206.5,455.3,206.5c-0.1-0.1-0.2-0.2-0.3-0.3
		c0,0.1,0,0.2,0,0.3C455.1,206.5,455.2,206.5,455.3,206.5z"/>
</g>
</svg>
